<svg width="137" height="158" viewBox="0 0 137 158" fill="none" xmlns="http://www.w3.org/2000/svg">
<path d="M65.7503 19.2501C62.8485 19.8303 60.1037 21.0434 57.728 22.7741C57.0812 22.3054 56.4154 21.8701 55.7133 21.4732C46.0173 15.9915 33.677 19.4273 28.2016 29.1121C26.1979 32.6561 25.3242 36.7507 25.6683 40.7985C22.0115 42.5843 18.9645 45.4503 16.9609 48.9943C11.4791 58.6903 14.915 71.0306 24.5998 76.506C25.1681 76.8274 25.7602 77.1327 26.3601 77.3983C25.912 80.454 26.1821 83.5923 27.1486 86.5653C28.7205 91.3808 32.007 95.4008 36.4092 97.8896C40.6219 100.271 45.5752 101.057 50.3189 100.106C54.42 99.2775 58.1424 97.2199 60.9838 94.223L144.402 141.385L146.252 142.431L147.298 140.581L173.359 94.4859L174.404 92.6359L172.554 91.59L89.1359 44.4283C90.2388 40.4485 90.089 36.187 88.6783 32.2569C87.0535 27.6909 83.8204 23.8629 79.6077 21.4811C75.4124 19.0946 70.4877 18.3105 65.7503 19.2501Z" fill="#09384E"/>
<path d="M77.2012 25.7378C84.5456 29.89 87.1419 39.2409 82.9897 46.5853L118.709 66.7794C122.509 68.928 123.846 73.743 121.697 77.5434C119.549 81.3438 114.734 82.6807 110.933 80.5321C114.734 82.6807 116.071 87.4957 113.922 91.296C111.774 95.0964 106.959 96.4333 103.158 94.2847C106.959 96.4333 108.296 101.248 106.147 105.049C103.998 108.849 99.1833 110.186 95.383 108.037L59.664 87.8432C55.5118 95.1876 46.1609 97.7839 38.8165 93.6317C31.8956 89.7189 29.1998 81.1942 32.3829 74.0813C30.5444 73.8214 28.7234 73.2184 27.0182 72.2544C19.6738 68.1021 17.0775 58.7513 21.2297 51.4069C23.4602 47.4616 27.1977 44.8831 31.3192 43.9924C29.9575 40.0017 30.2399 35.4699 32.4704 31.5246C36.6227 24.1802 45.9735 21.5839 53.3179 25.7361C55.0676 26.7253 56.544 28.016 57.7354 29.4984C62.3173 23.7353 70.5812 21.9951 77.2012 25.7378Z" fill="white"/>
<path d="M76.5543 42.9331C78.7014 39.1354 77.3633 34.3163 73.5656 32.1692C69.7679 30.0221 64.9487 31.3602 62.8017 35.1579C60.6546 38.9556 61.9927 43.7747 65.7904 45.9218C69.5881 48.0689 74.4073 46.7308 76.5543 42.9331Z" fill="#F9AB97"/>
<path d="M53.2223 84.2026C55.3694 80.405 54.0313 75.5858 50.2336 73.4387C46.4359 71.2916 41.6167 72.6297 39.4696 76.4274C37.3226 80.2251 38.6607 85.0443 42.4584 87.1913C46.2561 89.3384 51.0752 88.0003 53.2223 84.2026Z" fill="#F9AB97"/>
<path d="M41.4059 62.8301C43.553 59.0324 42.2149 54.2132 38.4172 52.0662C34.6195 49.9191 29.8003 51.2572 27.6532 55.0548C25.5062 58.8525 26.8443 63.6717 30.642 65.8188C34.4396 67.9658 39.2588 66.6278 41.4059 62.8301Z" fill="#F9AB97"/>
<path d="M52.653 42.9365C54.8 39.1389 53.4619 34.3197 49.6643 32.1726C45.8666 30.0255 41.0474 31.3636 38.9003 35.1613C36.7532 38.959 38.0913 43.7782 41.889 45.9252C45.6867 48.0723 50.5059 46.7342 52.653 42.9365Z" fill="#F9AB97"/>
<path d="M61.2595 51.5672C61.226 51.5483 61.2038 51.5357 61.1703 51.5168C57.0594 49.1632 51.7589 50.5786 49.3718 54.6706C46.9344 58.8518 48.3866 64.2173 52.5882 66.5927C52.6439 66.6242 52.6996 66.6557 52.7442 66.6809C54.6131 67.6934 55.805 69.6174 55.9259 71.7447C56.1127 74.7182 57.8152 77.5338 60.7279 78.9893C64.7419 80.994 69.6708 79.5597 72.005 75.7172C72.8056 74.405 73.2056 72.9692 73.2547 71.5557C73.3329 69.5704 74.3662 67.7426 76.027 66.652C77.2192 65.87 78.2432 64.7871 78.9485 63.4356C81.0423 59.472 79.7253 54.4918 75.9381 52.0859C73.2004 50.3469 69.8989 50.3334 67.2548 51.7064C65.376 52.6885 63.1017 52.6528 61.2595 51.5672Z" fill="#F9AB97"/>
<path d="M31.6215 70.6956C29.4542 72.5 28.4529 74.7134 27.9962 76.2495C27.8585 76.7011 27.9148 77.1742 28.1342 77.5924C28.3537 78.0106 28.7282 78.3106 29.1687 78.4419C29.6203 78.5796 30.0932 78.5234 30.5115 78.304C30.9297 78.0845 31.2297 77.7099 31.361 77.2695C31.6848 76.2024 32.3828 74.6557 33.8745 73.396C34.6291 72.7637 35.5083 72.2753 36.4644 71.9629C36.8782 71.8292 37.231 71.5433 37.4452 71.1644C37.6846 70.7409 37.7395 70.2277 37.5801 69.7552C37.4367 69.3065 37.1222 68.9522 36.7036 68.7302C36.2786 68.5193 35.8163 68.4786 35.3613 68.6331C33.9913 69.0793 32.7177 69.7711 31.6215 70.6956Z" fill="#09384E"/>
<path d="M27.0929 38.4123C26.8263 38.8057 26.7396 39.2714 26.8195 39.7284C27.1057 41.1992 27.5489 42.6263 28.1269 43.9972C28.496 44.8531 28.9176 45.6944 29.3928 46.4925C29.889 47.3319 30.97 47.6048 31.7919 47.1135C32.0579 46.9551 32.2698 46.7366 32.421 46.4691C32.7298 45.923 32.7298 45.2465 32.4018 44.7081C32.0001 44.0398 31.646 43.3395 31.3441 42.6247C30.8577 41.482 30.4887 40.288 30.2591 39.0552C30.0785 38.1001 29.1467 37.485 28.2027 37.672C27.7506 37.7693 27.3532 38.03 27.0929 38.4123Z" fill="#09384E"/>
<path d="M57.8158 24.677C57.3492 24.722 56.931 24.9415 56.631 25.316C55.873 26.2405 54.8765 27.7949 54.521 29.9324C54.17 31.9841 54.5464 33.7117 54.915 34.8025C55.0647 35.2401 55.3903 35.6007 55.8041 35.8053C56.2291 36.0161 56.7039 36.0345 57.1415 35.8848C57.5442 35.7448 57.8796 35.4638 58.0939 35.0849C58.3396 34.6503 58.3895 34.1196 58.2301 33.6472C57.9903 32.9527 57.7438 31.828 57.9775 30.5041C58.2142 29.1231 58.8495 28.1292 59.339 27.5236C59.6327 27.1602 59.7704 26.7086 59.7254 26.2419C59.6804 25.7752 59.461 25.357 59.0865 25.057C58.7453 24.7759 58.2825 24.6319 57.8158 24.677Z" fill="#09384E"/>
</svg>
