<svg width="39" height="38" viewBox="0 0 39 38" fill="none" xmlns="http://www.w3.org/2000/svg">
<path d="M19.6542 38C30.0845 38 38.5398 29.4934 38.5398 19C38.5398 8.50659 30.0845 0 19.6542 0C9.22399 0 0.768555 8.50659 0.768555 19C0.768555 29.4934 9.22399 38 19.6542 38Z" fill="#F87B54"/>
<path d="M12.8589 15.618C13.0806 17.7504 13.7715 19.6781 14.9316 21.4437C16.0489 23.1326 17.4905 24.4803 19.2476 25.5039C19.3244 25.3333 19.3841 25.1712 19.4694 25.0347C19.657 24.7362 19.8446 24.4377 20.0749 24.1732C20.4332 23.7638 20.8853 23.67 21.3885 23.8662C22.8045 24.4035 24.2119 24.958 25.6278 25.4953C25.7984 25.5636 25.9604 25.6233 26.131 25.6915C26.6172 25.8877 26.8987 26.3057 26.8902 26.8345C26.8646 28.839 25.4742 30.434 23.4868 30.7411C22.8471 30.8349 22.2244 30.724 21.6103 30.5705C18.6505 29.8284 16.0745 28.3954 13.908 26.2545C11.5367 23.9003 9.99289 21.0855 9.29346 17.8101C8.79874 15.4815 8.80722 13.1529 9.32753 10.8328C9.85637 8.46155 12.3727 7.15651 14.6416 8.06065C15.2813 8.31655 15.5372 8.71742 15.4946 9.39979C15.4007 11.0546 15.3154 12.7008 15.2216 14.3556C15.1875 14.9015 14.8889 15.2768 14.3686 15.4388C13.9763 15.5668 13.5753 15.635 13.1574 15.6265C13.0721 15.6179 12.9783 15.618 12.8589 15.618Z" fill="#FCFBE3"/>
<path d="M30.4382 16.0527C30.0117 14.7476 29.3379 13.5535 28.4508 12.4788C27.5637 11.4125 26.4975 10.534 25.2948 9.87719C24.041 9.19482 22.7019 8.7854 21.2945 8.64893C21.2689 8.64893 21.2517 8.64893 21.2262 8.64893C21.0556 8.64893 20.8935 8.70863 20.7656 8.81952C20.6206 8.93894 20.5268 9.11805 20.5097 9.32276C20.4756 9.7066 20.7485 10.0478 21.1409 10.099C23.6571 10.406 25.7384 11.5234 27.3249 13.4256C28.9114 15.3277 29.6365 17.571 29.483 20.1043C29.4574 20.4967 29.7474 20.8293 30.1483 20.8635C30.1653 20.8635 30.1909 20.8635 30.208 20.8635C30.3786 20.8635 30.5406 20.8038 30.6685 20.6929C30.8135 20.5735 30.9074 20.3943 30.9244 20.2067C31.0524 18.7993 30.8903 17.4004 30.4382 16.0527Z" fill="#FCFBE3"/>
<path d="M21.0124 11.7964C20.9954 11.7964 20.9699 11.7964 20.9528 11.7964C20.586 11.7964 20.2704 12.0864 20.2363 12.4617C20.2022 12.8456 20.4751 13.1867 20.8589 13.2379C22.5052 13.4511 23.8699 14.1932 24.9105 15.4386C25.9512 16.6839 26.4374 18.1595 26.3521 19.8143C26.335 20.1981 26.6165 20.5308 27.0174 20.5649C27.043 20.5649 27.06 20.5649 27.0856 20.5649C27.2562 20.5649 27.4183 20.5052 27.5462 20.3943C27.6912 20.2664 27.7851 20.0958 27.8021 19.8996C27.9557 17.9122 27.2988 15.9674 25.9767 14.415C24.6802 12.9138 22.8719 11.9585 21.0124 11.7964Z" fill="#FCFBE3"/>
<path d="M20.7229 15.2165C20.6973 15.2165 20.6718 15.208 20.6376 15.208C20.467 15.208 20.3135 15.2677 20.1856 15.3701C20.032 15.498 19.9382 15.6686 19.9211 15.8733C19.887 16.2316 20.1344 16.5557 20.4841 16.6325C22.0706 16.9737 22.8724 17.929 22.9151 19.5496C22.9236 19.9164 23.2051 20.2064 23.5804 20.2405C23.5974 20.2405 23.623 20.2405 23.6401 20.2405C23.8107 20.2405 23.9813 20.1808 24.1092 20.0614C24.2542 19.9334 24.348 19.7543 24.3566 19.5582C24.4163 18.5175 24.0666 17.494 23.3671 16.6581C22.6848 15.8563 21.738 15.336 20.7229 15.2165Z" fill="#FCFBE3"/>
</svg>
