<svg width="27" height="28" viewBox="0 0 27 28" fill="none" xmlns="http://www.w3.org/2000/svg">
<path d="M16.2848 27.8735C18.1152 27.8735 19.599 26.3897 19.599 24.5593C19.599 22.729 18.1152 21.2452 16.2848 21.2452C14.4545 21.2452 12.9707 22.729 12.9707 24.5593C12.9707 26.3897 14.4545 27.8735 16.2848 27.8735Z" fill="#6FCACF"/>
<path d="M10.5778 6.62806C12.4082 6.62806 13.892 5.14436 13.892 3.31402C13.892 1.48368 12.4082 -0.00012207 10.5778 -0.00012207C8.74748 -0.00012207 7.26367 1.48368 7.26367 3.31402C7.26367 5.14436 8.74748 6.62806 10.5778 6.62806Z" fill="#6FCACF"/>
<path d="M19.7088 10.6664C21.7452 10.6664 23.396 9.01546 23.396 6.97906C23.396 4.94266 21.7452 3.29187 19.7088 3.29187C17.6724 3.29187 16.0215 4.94266 16.0215 6.97906C16.0215 9.01546 17.6724 10.6664 19.7088 10.6664Z" fill="#6FCACF"/>
<path d="M22.3855 20.5429C24.4219 20.5429 26.0727 18.8921 26.0727 16.8556C26.0727 14.8192 24.4219 13.1685 22.3855 13.1685C20.3491 13.1685 18.6982 14.8192 18.6982 16.8556C18.6982 18.8921 20.3491 20.5429 22.3855 20.5429Z" fill="#6FCACF"/>
<path d="M12.7064 18.9847C12.7284 18.9847 12.7503 18.9847 12.7503 18.9627C15.0549 18.3482 16.4376 15.8462 15.8011 13.366C15.1646 10.842 12.7065 9.28371 10.3361 9.9202C10.3141 9.9202 10.2703 9.94217 10.2483 9.94217C9.21677 10.2494 8.09743 9.94214 7.28536 9.15202C6.14407 8.05463 4.51989 7.59377 2.9616 8.09857C0.810711 8.8009 -0.418346 11.1932 0.13035 13.5416C0.32788 14.3537 0.70095 15.056 1.1838 15.6266C1.88613 16.4168 2.17148 17.5142 1.97395 18.5677C1.84226 19.3139 1.86423 20.104 2.10565 20.8941C2.80798 23.2206 5.06863 24.6691 7.28536 24.1863C8.88755 23.8571 10.0727 22.628 10.5116 21.1136C10.8408 20.0601 11.6529 19.2481 12.7064 18.9847Z" fill="#6FCACF"/>
</svg>
