<svg width="82" height="110" viewBox="0 0 82 110" fill="none" xmlns="http://www.w3.org/2000/svg">
<path d="M39.0123 102.569C39.5555 102.677 40.0988 102.786 40.6421 102.894C42.2448 104.035 41.2126 105.366 40.8594 106.589C40.452 107.947 39.4741 107.403 38.5234 107.241C35.318 106.724 32.0855 106.154 28.853 105.964C21.8447 105.557 15.0266 104.253 8.20842 102.65C5.89949 102.107 4.67711 100.721 3.99802 98.4666C3.53623 96.9726 4.2153 95.3157 3.15591 93.9575C3.02009 93.0068 2.85715 92.0559 2.72133 91.078C1.09149 79.153 5.16608 68.9394 12.0929 59.5679C17.5257 52.2064 24.2351 46.0403 30.8088 39.7926C32.5473 38.1356 34.2043 36.4244 35.9156 34.7402C36.4317 34.2241 36.8392 33.5177 37.7084 33.4905C43.2499 36.2884 46.4823 40.6618 47.0256 46.9366C47.3516 50.8211 46.6997 54.5427 45.3415 58.1555C44.771 59.6496 44.3636 61.1164 44.9883 62.719C46.2922 66.1417 47.5689 69.5915 48.8456 73.0413C49.905 78.9359 50.9644 84.8303 52.0238 90.7249C51.7793 90.8064 51.5077 90.8878 51.2632 90.9422C48.9543 91.4311 47.5961 93.4686 45.5588 94.4194C45.0155 93.9576 44.934 93.2512 44.6081 92.6808C43.1955 90.1817 42.5436 87.2751 40.6421 85.0205C39.1209 80.7286 37.2467 76.5726 34.9921 72.6339C32.8733 68.9124 28.9616 67.9073 25.05 68.2876C21.6546 68.6136 20.0247 71.4659 18.8567 74.4539C17.8788 77.0073 17.3355 79.6964 16.8737 82.3585C15.8415 88.3074 13.2066 93.1153 7.9911 96.3749C7.6108 96.6194 6.98607 96.7554 7.14906 97.353C7.28488 97.8963 7.93678 97.8418 8.34424 98.0048C11.5496 99.2 14.8907 99.7706 18.2591 100.205C21.0569 100.558 23.8549 101.183 26.7071 100.64C26.8972 101.183 27.4133 101.264 27.8479 101.319C30.5915 101.645 33.3622 101.916 36.1057 102.188C36.5947 102.242 37.1108 102.297 37.5998 102.324C38.0615 102.677 38.5233 102.677 39.0123 102.569Z" fill="#F87B54"/>
<path d="M72.6953 1.49138C73.483 4.47941 72.8311 7.44033 72.4508 10.374C72.1792 12.4657 72.1249 14.3942 72.804 16.513C74.2436 21.1308 73.9449 25.6131 70.5765 29.4975C69.1368 26.754 67.8873 26.2106 64.6276 26.944C62.8891 27.3515 61.1506 27.7319 59.4937 26.6453C59.3035 26.5638 59.1405 26.5093 58.9504 26.4278L58.9232 26.4007C57.3477 27.0255 58.2441 25.6946 57.8095 25.4229C55.6364 23.5215 53.2731 23.8473 51.9421 26.2105C51.8334 26.2105 51.7248 26.2106 51.6161 26.2649C49.4702 27.0527 47.3514 27.4059 45.0696 26.7268C41.8643 25.776 40.7234 26.4008 39.3381 29.4975C36.187 26.5367 35.2363 19.963 37.4366 15.3723C38.0613 14.0413 38.1971 12.7917 38.007 11.4335C37.518 8.03804 37.4637 4.6424 37.7082 1.21974C38.4145 1.81735 38.0342 2.60516 38.0885 3.31142C38.3058 6.1093 38.496 8.88002 39.3381 11.868C40.1258 10.5913 40.7777 9.6405 41.321 8.63544C41.5926 8.14649 42.3532 7.73919 41.9729 7.03293C40.7777 4.88698 39.99 2.46939 38.0342 0.785228C38.4688 -0.518639 39.3381 0.133189 40.0171 0.404828C42.3261 1.40989 44.4177 2.82247 46.292 4.53379C46.9982 5.18573 47.7045 5.51175 48.6824 5.26727C53.0015 4.09922 57.3206 4.31643 61.6124 5.29433C62.7533 5.56597 63.4596 5.29438 64.3016 4.53379C66.013 2.98545 67.9416 1.70885 70.0604 0.70379C70.7938 0.350659 71.6088 -0.382979 72.3422 0.757905C71.4729 1.54566 71.2284 2.74103 70.5493 3.63744C68.4577 6.40816 68.5935 9.07006 70.9296 11.6235C71.0111 11.705 71.1469 11.7322 71.2828 11.8137C71.7717 8.39102 72.2335 4.9412 72.6953 1.49138ZM52.9471 20.8592C52.9471 23.4941 53.8979 24.5264 55.6635 23.6843C56.9131 23.0867 56.9945 21.7015 57.2118 20.5334C57.5106 18.9579 56.234 16.7577 55.0659 16.8663C53.1916 17.0565 52.9743 18.5231 52.92 20.0443C52.92 20.3159 52.9471 20.5876 52.9471 20.8592Z" fill="#F9AB97"/>
<path d="M52.0236 90.752C50.9642 84.8574 49.9048 78.9627 48.8454 73.0681C50.2851 73.0953 51.1815 72.0631 52.1322 71.221C56.3426 67.3366 58.8146 62.3113 61.042 57.1502C62.9435 52.7496 64.4103 48.2133 64.03 43.2966C63.7584 39.9011 62.3187 37.1304 58.5973 36.7773C57.0218 36.6415 55.4734 36.6685 53.9251 36.5327C49.3072 36.0709 45.0153 34.7399 41.4297 31.6432L41.484 31.5888C43.5756 31.9691 45.3684 33.1645 47.4601 33.572C50.937 34.2239 53.8164 32.8655 54.5227 30.0948C54.4955 29.7145 54.6856 29.6059 55.0388 29.6059C55.1746 32.1321 56.5871 33.4632 59.1405 33.6805C62.7262 33.9793 65.9315 32.9198 69.001 31.1813C70.9297 37.6192 72.641 44.1386 72.6139 50.9296C72.5867 55.8462 71.3915 60.5999 70.0876 65.3264C69.8703 66.1413 70.1691 67.1192 69.3542 67.7712C67.4527 72.4705 64.7906 76.7354 61.9384 80.9186C61.5038 81.5434 61.1235 82.1682 61.1235 82.9559C59.1677 83.6078 59.0319 85.7265 57.891 87.0575C55.6907 88.4972 54.7671 91.1322 52.6755 92.7349C52.431 92.0286 52.2409 91.4039 52.0236 90.752Z" fill="#F87B54"/>
<path d="M52.0512 28.0035C52.0512 28.0579 52.0784 28.1121 52.1055 28.1664C52.0512 28.1664 52.0241 28.1665 51.9697 28.1394C51.9969 28.1122 52.024 28.0579 52.0512 28.0035Z" fill="#D1DCCE"/>
<path d="M52.1045 27.5147V27.4871C52.1045 27.4871 52.1322 27.487 52.1045 27.5147Z" fill="#D1DCCE"/>
<path d="M61.124 82.9559C61.124 82.1681 61.5043 81.5434 61.9389 80.9186C64.7912 76.7353 67.4261 72.4705 69.3547 67.7711C69.2732 70.6505 69.1917 73.5028 69.1102 76.3822C69.1102 76.7896 69.0831 77.1971 69.0831 77.6045C69.0831 77.8762 69.0831 78.1478 69.0831 78.4195C69.0831 78.8269 69.0831 79.2344 69.0831 79.6418C69.1102 79.9135 69.1373 80.1851 69.1645 80.4567C69.1373 86.7044 69.8164 92.8164 71.8809 98.7653C72.4242 100.286 73.2391 101.21 75.0047 101.047C75.9555 100.965 76.9063 101.21 77.7755 101.645C78.5633 102.052 79.3781 102.568 79.2151 103.655C79.0522 104.633 78.3188 105.176 77.4224 105.42C71.6636 106.969 68.1051 105.203 65.7962 99.6617C63.4873 94.2561 62.1834 88.6331 61.124 82.9559Z" fill="#F9AB97"/>
<path d="M47.4597 33.5446C50.7465 34.1694 53.49 33.0013 54.3593 30.5566C54.7124 30.8825 55.0384 31.0728 55.31 31.1272C55.8533 32.6483 57.1572 33.4904 59.113 33.6533C62.6986 33.9521 65.9311 32.8926 68.9735 31.1813C69.5167 30.6108 70.0329 30.0678 70.5762 29.4973C69.1365 26.7538 67.8869 26.2104 64.6272 26.9438C62.8888 27.3513 61.1503 27.7317 59.4933 26.6451C59.3031 26.5636 59.1402 26.5091 58.95 26.4276L58.9228 26.4005C58.6783 26.2104 58.4882 26.2919 58.3252 26.4005C58.2437 26.1832 58.1079 25.8574 57.8363 25.4227C55.7718 23.3583 52.9739 23.8743 51.6429 26.2647C49.5241 27.0525 47.3782 27.4056 45.0964 26.7266C41.8911 25.7758 40.7502 26.4278 39.3648 29.4973C39.7179 30.1764 39.718 30.7468 39.066 31.29C38.387 31.8605 37.898 32.5938 37.6807 33.4902C43.2221 36.2881 46.4546 40.6615 46.9979 46.9363C47.3239 50.8208 46.6719 54.5424 45.3137 58.1552C44.7433 59.6493 44.3358 61.116 44.9606 62.7187C46.2645 66.1414 47.5412 69.5912 48.8179 73.041C50.2847 73.0682 51.154 72.036 52.1047 71.1939C56.3151 67.3095 58.787 62.2839 61.0144 57.1228C62.9159 52.7222 64.3828 48.1859 64.0025 43.2692C63.7308 39.8737 62.2911 37.1031 58.5697 36.7228C56.9942 36.587 55.4458 36.6141 53.8975 36.4782C49.2796 36.0436 44.9877 34.6854 41.4021 31.5887C41.3478 31.5072 41.2935 31.453 41.212 31.3715C41.2935 31.4258 41.3478 31.4803 41.4293 31.5346C43.5481 31.9692 45.3409 33.1643 47.4597 33.5446Z" fill="#F9AB97"/>
<path d="M57.8656 26.6453V26.6728C57.8656 26.6728 57.8656 26.6728 57.8379 26.6728L57.8656 26.6453Z" fill="#D1DCCE"/>
<path d="M38.0887 0.812225C40.0445 2.49639 40.8323 4.91397 42.0275 7.05992C42.4078 7.73902 41.6472 8.14658 41.3756 8.6627C40.8323 9.66776 40.1803 10.6183 39.3926 11.895C38.5505 8.90701 38.3875 6.1363 38.143 3.33842C38.0887 2.63215 38.469 1.81745 37.7628 1.24701C37.7356 0.975368 37.8171 0.812225 38.0887 0.812225Z" fill="#F87B54"/>
<path d="M72.6952 1.49132C72.2334 4.94114 71.7717 8.39101 71.3099 11.868C71.1469 11.7865 71.0382 11.7593 70.9568 11.6778C68.6207 9.12438 68.4849 6.46248 70.5765 3.69176C71.2556 2.79535 71.5 1.59998 72.3693 0.812225C72.6952 0.948045 72.7767 1.19252 72.6952 1.49132Z" fill="#F87B54"/>
<path d="M69.0283 79.6421C69.0283 79.2346 69.0283 78.8271 69.0283 78.4197C69.4629 78.8271 69.4358 79.2346 69.0283 79.6421Z" fill="#DDE4D1"/>
<path d="M69.0566 77.6046C69.0566 77.1971 69.0838 76.7896 69.0838 76.3822C69.4641 76.7896 69.4641 77.1971 69.0566 77.6046Z" fill="#DDE4D1"/>
<path d="M80.8994 65.7068C81.0081 65.8698 81.0895 66.0328 81.1982 66.1686C81.0895 66.0328 80.9809 65.8698 80.8994 65.7068Z" fill="#F2935A"/>
<path d="M3.15624 93.9575C4.21563 95.3157 3.53656 96.9726 3.99835 98.4666C4.67745 100.721 5.89982 102.107 8.20875 102.65C14.9997 104.253 21.845 105.584 28.8533 105.964C32.0858 106.154 35.3184 106.724 38.5237 107.24C39.4744 107.403 40.4523 107.92 40.8597 106.589C41.24 105.366 42.2723 104.035 40.6424 102.894C43.7663 103.166 46.863 103.628 49.688 105.067C50.6931 105.556 51.6981 106.154 51.4537 107.485C51.2092 108.762 50.0955 109.115 48.9818 109.224C46.0481 109.55 43.1415 109.224 40.2078 109.033C38.904 108.599 37.5458 108.49 36.1876 108.327C24.8059 107.132 13.2884 106.86 2.45002 102.514C-1.05412 99.5804 -0.782525 96.3479 3.15624 93.9575Z" fill="#F9AB97"/>
<path d="M39.0122 102.568C38.5233 102.677 38.0344 102.677 37.6269 102.324C37.7356 102.27 37.8986 102.27 37.98 102.188C38.143 102.079 38.2245 101.862 37.9257 101.862C37.3009 101.862 36.6218 101.59 36.1057 102.188C33.3621 101.889 30.5915 101.618 27.8479 101.319C27.4133 101.264 26.8972 101.183 26.707 100.64C32.4658 99.4173 36.812 96.4836 38.6591 90.589C39.2568 88.7147 39.963 86.8947 40.6149 85.0204C42.5164 87.275 43.1683 90.1816 44.5808 92.6807C44.9068 93.2511 44.9883 93.9847 45.5316 94.4193C46.2378 96.0491 46.917 97.679 47.6232 99.3088C45.1242 101.373 42.1361 102.107 39.0122 102.568Z" fill="#F87B54"/>
<path d="M47.6239 99.3359C46.9176 97.7061 46.2385 96.0762 45.5322 94.4464C47.5695 93.5228 48.9277 91.4584 51.2366 90.9695C51.5083 90.9151 51.7528 90.8337 51.9972 90.7522C52.1874 91.377 52.4047 92.0287 52.622 92.7078C54.7137 91.1051 55.6372 88.4704 57.8375 87.0307C57.5115 90.9423 57.1312 94.854 56.8868 98.7656C56.8324 99.5805 56.3435 100.776 57.8104 101.047C56.425 101.427 55.7459 102.677 55.9903 103.791C56.3706 105.557 55.4199 105.529 54.3062 105.638C51.7256 105.312 50.0958 103.764 48.9006 101.59C48.5203 100.83 48.0585 100.069 47.6239 99.3359Z" fill="#F9AB97"/>
<path d="M54.332 105.638C55.4458 105.556 56.3965 105.556 56.0162 103.791C55.7717 102.677 56.4508 101.455 57.8361 101.047C58.8955 101.21 60.0093 101.264 61.0415 101.536C62.0737 101.808 62.8887 102.46 62.8887 103.682C62.8887 104.932 62.0194 105.584 60.96 105.692C58.7597 105.91 56.5323 106.208 54.332 105.638Z" fill="#F87B54"/>
<path d="M40.6429 85.0203C39.9909 86.8674 39.2847 88.7146 38.6871 90.5889C36.8399 96.4835 32.4937 99.4172 26.735 100.64C23.8828 101.183 21.0849 100.558 18.287 100.205C14.9187 99.7704 11.5775 99.1998 8.37221 98.0046C7.96475 97.8416 7.31278 97.9233 7.17696 97.3528C7.01397 96.728 7.63877 96.5921 8.01907 96.3748C13.2345 93.1423 15.8694 88.3072 16.9016 82.3583C17.3634 79.6962 17.9067 77.0071 18.8846 74.4537C20.0527 71.4657 21.6825 68.6134 25.078 68.2874C28.9896 67.9343 32.874 68.9122 35.02 72.6337C37.2474 76.5453 39.1217 80.7284 40.6429 85.0203Z" fill="#F9AB97"/>
<path d="M36.1328 102.188C36.6489 101.59 37.328 101.862 37.9528 101.862C38.2516 101.862 38.1701 102.079 38.0071 102.188C37.8984 102.269 37.7626 102.269 37.654 102.324C37.1378 102.269 36.6489 102.215 36.1328 102.188Z" fill="#F87B54"/>
<path d="M52.9473 20.8592C52.9473 20.5876 52.9473 20.316 52.9473 20.0443C52.9744 18.5231 53.2189 17.0565 55.0933 16.8664C56.2613 16.7577 57.538 18.958 57.2392 20.5335C57.0219 21.7015 56.9404 23.114 55.6908 23.6844C53.8709 24.5536 52.9473 23.5213 52.9473 20.8592Z" fill="#F9AB97"/>
<path d="M52.1055 27.8947V28.1934C52.0512 28.1934 52.0241 28.1935 51.9697 28.1664C51.9969 28.1121 52.024 28.0577 52.0512 28.0306C52.0783 27.9762 52.1055 27.9219 52.1055 27.8947Z" fill="#D1DCCE"/>
<path d="M59.5218 26.6722C59.3316 26.5907 59.1687 26.5364 58.9785 26.455C59.1415 26.5093 59.3316 26.5907 59.5218 26.6722Z" fill="#343B59"/>
<path d="M41.4296 31.6162C41.3753 31.5347 41.3209 31.4804 41.2666 31.3989C41.3481 31.4533 41.4024 31.5075 41.4839 31.5618C41.4568 31.589 41.4296 31.6162 41.4296 31.6162Z" fill="#A3A7B4"/>
</svg>
