<svg width="194" height="39" viewBox="0 0 194 39" fill="none" xmlns="http://www.w3.org/2000/svg">
<path d="M172.224 16.4391H146.062C144.394 16.4391 143.056 15.1002 143.056 13.4322C143.056 11.7642 144.394 10.4253 146.062 10.4253H172.224C173.892 10.4253 175.231 11.7642 175.231 13.4322C175.231 15.1002 173.892 16.4391 172.224 16.4391Z" fill="#6FCACF"/>
<path d="M190.024 20.5212H126.354C125.344 20.5212 124.422 20.8505 123.764 21.3992C123.105 21.9478 122.688 22.6941 122.688 23.5281C122.688 25.1962 124.335 26.535 126.354 26.535H131.204C133.223 26.535 134.869 27.8738 134.869 29.5418C134.869 30.3758 134.453 31.1221 133.794 31.6708C133.136 32.2195 132.214 32.5487 131.204 32.5487H112.154C111.144 32.5487 110.222 32.8779 109.564 33.4266C108.905 33.9753 108.488 34.7215 108.488 35.5555C108.488 37.2235 110.134 38.5624 112.154 38.5624H185.218C186.227 38.5624 187.149 38.2332 187.808 37.6845C188.466 37.1358 188.883 36.3895 188.883 35.5555C188.883 33.8875 187.237 32.5487 185.218 32.5487H176.373C174.354 32.5487 172.708 31.2099 172.708 29.5418C172.708 28.7078 173.125 27.9616 173.783 27.4129C174.441 26.8642 175.363 26.535 176.373 26.535H190.024C191.034 26.535 191.956 26.2058 192.614 25.6571C193.273 25.1084 193.69 24.3622 193.69 23.5281C193.69 21.8601 192.044 20.5212 190.024 20.5212ZM168.867 31.6708C168.208 32.2195 167.286 32.5487 166.277 32.5487H153.503C151.484 32.5487 149.838 31.2099 149.838 29.5418C149.838 28.7078 150.255 27.9616 150.913 27.4129C151.572 26.8642 152.494 26.535 153.503 26.535H166.277C168.296 26.535 169.942 27.8738 169.942 29.5418C169.942 30.3758 169.525 31.1221 168.867 31.6708Z" fill="#6FCACF"/>
<path d="M97.8875 38.5624H90.3814C88.7134 38.5624 87.3525 37.2017 87.3525 35.5336C87.3525 33.8656 88.7134 32.5048 90.3814 32.5048H97.8875C99.5555 32.5048 100.916 33.8656 100.916 35.5336C100.916 37.2017 99.5555 38.5624 97.8875 38.5624Z" fill="#6FCACF"/>
<path d="M63.737 16.4391H37.5753C35.9072 16.4391 34.5684 15.1002 34.5684 13.4322C34.5684 11.7642 35.9072 10.4253 37.5753 10.4253H63.737C65.405 10.4253 66.7439 11.7642 66.7439 13.4322C66.7439 15.1002 65.3831 16.4391 63.737 16.4391Z" fill="#6FCACF"/>
<path d="M81.5362 20.5212H17.8655C16.8559 20.5212 15.9341 20.8505 15.2757 21.3992C14.6173 21.9478 14.2003 22.6941 14.2003 23.5281C14.2003 25.1962 15.8463 26.535 17.8655 26.535H22.716C24.7352 26.535 26.3813 27.8738 26.3813 29.5418C26.3813 30.3758 25.9643 31.1221 25.3059 31.6708C24.6475 32.2195 23.7256 32.5487 22.716 32.5487H3.66533C2.65573 32.5487 1.73386 32.8779 1.07542 33.4266C0.416987 33.9753 0 34.7215 0 35.5555C0 37.2235 1.64613 38.5624 3.66533 38.5624H76.7296C77.7392 38.5624 78.661 38.2332 79.3194 37.6845C79.9778 37.1358 80.3949 36.3895 80.3949 35.5555C80.3949 33.8875 78.7488 32.5487 76.7296 32.5487H67.8847C65.8655 32.5487 64.2193 31.2099 64.2193 29.5418C64.2193 28.7078 64.6363 27.9616 65.2948 27.4129C65.9532 26.8642 66.8751 26.535 67.8847 26.535H81.5362C82.5458 26.535 83.4676 26.2058 84.1261 25.6571C84.7845 25.1084 85.2015 24.3622 85.2015 23.5281C85.2015 21.8601 83.5554 20.5212 81.5362 20.5212ZM60.3565 31.6708C59.6981 32.2195 58.7763 32.5487 57.7667 32.5487H45.015C42.9958 32.5487 41.3497 31.2099 41.3497 29.5418C41.3497 28.7078 41.7668 27.9616 42.4252 27.4129C43.0836 26.8642 44.0054 26.535 45.015 26.535H57.7887C59.8079 26.535 61.4539 27.8738 61.4539 29.5418C61.4319 30.3758 61.0369 31.1221 60.3565 31.6708Z" fill="#6FCACF"/>
<path d="M100.916 0C100.675 0 100.477 0.19753 100.455 0.438956C100.236 5.59669 96.0879 9.74492 90.9302 9.9644C90.6887 9.9644 90.4912 10.1838 90.4912 10.4252C90.4912 10.6666 90.6887 10.8642 90.9302 10.8861C93.0152 10.9739 94.9246 11.6982 96.4829 12.8834C97.5584 13.6955 98.4582 14.7051 99.1386 15.8903C99.9068 17.2291 100.39 18.7873 100.455 20.4115C100.455 20.6529 100.675 20.8504 100.916 20.8504C101.158 20.8504 101.355 20.6529 101.377 20.4115C101.597 15.2537 105.745 11.1056 110.903 10.8861C111.144 10.8861 111.342 10.6666 111.342 10.4252C111.342 10.1838 111.144 9.98634 110.903 9.9644C109.322 9.89855 107.83 9.45955 106.513 8.71333C105.679 8.25242 104.911 7.65985 104.23 6.97947C102.562 5.26754 101.487 2.96304 101.377 0.417094C101.355 0.197616 101.158 0 100.916 0Z" fill="#6FCACF"/>
</svg>
