<svg width="39" height="38" viewBox="0 0 39 38" fill="none" xmlns="http://www.w3.org/2000/svg">
<path d="M19.2305 38C29.7239 38 38.2305 29.4934 38.2305 19C38.2305 8.5066 29.7239 0 19.2305 0C8.7371 0 0.230469 8.5066 0.230469 19C0.230469 29.4934 8.7371 38 19.2305 38Z" fill="#F87B54"/>
<path d="M33.2575 19.2769C33.2575 26.2116 28.1908 31.9521 21.5547 33.0098C21.5377 32.95 21.5291 32.7794 21.5291 32.7794L21.5633 23.3115L24.7193 23.2859L25.3334 19.1234H21.5633C21.5633 19.1234 21.5121 17.2639 21.5547 16.4024C21.6144 15.0803 22.365 14.3638 23.6871 14.3041C24.1904 14.2785 24.7022 14.2786 25.2054 14.2956C25.5466 14.3127 25.7001 14.2274 25.6916 13.8521C25.666 12.965 25.6746 12.0779 25.6916 11.1993C25.7001 10.8752 25.5808 10.7643 25.2737 10.7216C24.3099 10.5852 23.346 10.5084 22.3821 10.5084C19.1749 10.5255 17.1364 12.547 17.1108 15.7712C17.1022 16.846 17.0852 19.1234 17.0852 19.1234L13.443 19.1319L13.4515 23.32H17.0852L17.1193 32.6429C17.1193 32.6429 17.1107 32.9159 17.0766 33.0098C10.4746 31.9265 5.43359 26.1945 5.43359 19.2855C5.43359 11.6002 11.6603 5.37354 19.3456 5.37354C27.0308 5.36501 33.2575 11.5917 33.2575 19.2769Z" fill="#FCFBE3"/>
</svg>
