<svg width="764" height="559" viewBox="0 0 764 559" fill="none" xmlns="http://www.w3.org/2000/svg">
<path d="M26.6215 20.3017C66.0802 -36.5972 135.762 -42.3702 197.36 -43.7326L494.404 -50.3138C625.972 -43.5479 762.301 -44.8641 893.907 -38.0981L898.496 558.323L607.577 538.834C583.537 537.217 558.287 535.139 538.011 519.506C517.734 503.872 505.195 469.742 517.676 444.988C531.252 417.993 563.126 417.739 589.278 420.21C615.43 422.681 647.669 420.672 659.613 392.499C670.308 367.329 655.868 335.185 635.093 321.976C614.317 308.768 589.585 309.322 566.102 310.245L325.279 319.482C270.267 321.607 214.526 323.662 160.839 308.999C107.152 294.335 54.8283 260.852 24.5094 205.523C-5.80951 150.194 -8.65136 71.1504 26.6215 20.3017Z" fill="#F2F1DD"/>
<path d="M428.794 429.308C445.269 438.776 458.306 460.344 454.831 481.935C452.143 498.7 440.2 511.608 426.989 517.866C413.779 524.124 399.243 524.794 385.053 525.556L303.39 529.435C283.382 530.405 262.722 531.237 244.077 522.508C225.433 513.779 209.265 492.65 210.091 468.588C210.955 443.695 229.772 423.974 249.857 417.785C275.913 409.911 398.264 411.828 428.794 429.308Z" fill="#F2F1DD"/>
</svg>
