<svg width="38" height="38" viewBox="0 0 38 38" fill="none" xmlns="http://www.w3.org/2000/svg">
<path d="M19 38C29.4934 38 38 29.4934 38 19C38 8.5066 29.4934 0 19 0C8.50655 0 0 8.5066 0 19C0 29.4934 8.50655 38 19 38Z" fill="#F87B54"/>
<path d="M31.2019 19.3282C31.2019 17.3151 31.2275 15.3021 31.0569 13.2891C30.7584 9.8687 28.7198 7.47186 25.3249 7.10508C21.1966 6.66153 17.0341 6.72127 12.8972 7.08804C9.87774 7.35246 7.75378 9.43368 7.24199 12.4276C6.86669 14.5771 7.13967 16.7522 7.0629 18.9102C7.0629 20.6502 7.02022 22.3988 7.0714 24.1474C7.17376 27.9176 9.42563 30.4765 13.1616 30.8774C16.8465 31.2782 20.5569 31.0565 24.2502 30.9882C25.4615 30.9626 26.6556 30.6471 27.7133 30.0756C29.8372 28.9241 30.8181 27.0134 31.0569 24.6421C31.236 22.8765 31.2019 21.1023 31.2019 19.3282ZM29.0439 24.3862C28.9501 27.1669 27.0907 28.8387 24.2844 28.9326C22.5443 28.9923 20.7957 28.9411 18.3903 28.9411C16.9744 28.8558 14.8846 29.1629 12.8289 28.7705C10.6453 28.3525 9.31473 26.8769 9.17825 24.6677C8.93089 20.8805 8.87975 17.0934 9.16976 13.3062C9.35741 10.8496 11.0292 9.18632 13.4943 9.02426C17.1962 8.7769 20.8895 8.81102 24.5914 9.02426C27.2356 9.16926 28.9416 10.807 29.0439 13.5535C29.1634 17.1616 29.1719 20.7782 29.0439 24.3862Z" fill="#FCFBE3"/>
<path d="M26.9031 12.5472C26.886 13.2466 26.2549 13.8607 25.564 13.8436C24.8987 13.8266 24.2163 13.076 24.2419 12.3936C24.276 11.66 24.8731 11.0971 25.5981 11.1141C26.3487 11.1227 26.9202 11.7539 26.9031 12.5472Z" fill="#FCFBE3"/>
<path d="M19.1236 12.8115C15.8312 12.7177 12.8202 15.9931 12.8969 18.9956C12.9822 22.3904 15.5837 25.0858 19.0127 25.0687C22.3478 25.3929 25.3588 22.0492 25.2735 18.9871C25.1711 15.5581 22.5184 12.9139 19.1236 12.8115ZM19.4051 23.1922C16.9485 23.2007 14.9269 21.2645 14.9611 18.9273C14.9867 16.6073 16.9058 14.7648 19.2259 14.816C21.3925 14.8672 23.2519 16.829 23.2093 19.0382C23.1666 21.2133 21.3584 23.1837 19.4051 23.1922Z" fill="#FCFBE3"/>
</svg>
