<svg width="39" height="38" viewBox="0 0 39 38" fill="none" xmlns="http://www.w3.org/2000/svg">
<path d="M19.461 38C29.9544 38 38.4609 29.4934 38.4609 19C38.4609 8.5066 29.9544 0 19.461 0C8.96757 0 0.460938 8.5066 0.460938 19C0.460938 29.4934 8.96757 38 19.461 38Z" fill="#F87B54"/>
<path d="M18.024 25.504C17.4184 27.5085 17.1626 29.6067 16.0366 31.4065C15.6954 31.9439 16.1987 31.9695 16.4887 32.0377C17.8279 32.3363 19.1756 32.4557 20.5574 32.3619C27.5602 31.8501 33.0022 25.9219 32.8401 18.9447C32.6781 11.7882 26.9887 6.02217 19.9261 5.85158C11.4562 5.64686 4.86272 13.4942 6.59424 21.785C7.45574 25.8963 9.80138 28.9415 13.5118 30.9289C13.8359 31.0995 14.3306 31.5174 14.3221 30.6559C14.3051 28.8391 14.8765 27.1331 15.2433 25.3931C15.6698 23.3374 16.5569 21.35 15.9001 19.1664C15.7295 18.5949 15.9257 17.9637 16.1389 17.3752C16.301 16.9401 16.5398 16.5563 16.8639 16.2237C17.4866 15.5925 18.2628 15.4304 19.0732 15.7289C19.8664 16.019 20.0455 16.7354 20.037 17.5031C20.0199 19.0555 19.3205 20.4459 18.9623 21.9215C18.7491 22.8086 18.8343 23.5933 19.5508 24.2075C20.3185 24.8728 21.197 24.9325 22.1097 24.5657C22.8774 24.2586 23.4574 23.7213 23.8924 23.0218C25.1378 21.0344 25.5216 18.8423 25.1719 16.5648C24.9075 14.8248 23.8242 13.6221 22.1609 12.9824C19.6873 12.0356 16.5995 12.718 14.8765 14.5689C13.0171 16.5734 12.7612 18.9191 14.1089 21.6742C14.433 22.3395 14.1857 23.0219 13.8018 23.4654C13.4009 23.926 12.8721 23.3971 12.5309 23.1071C10.9529 21.7765 10.5691 19.9597 10.7738 18.0405C11.277 13.3492 15.3883 10.1932 20.5317 10.4491C24.6857 10.6538 27.799 13.2554 28.3279 17.1108C28.6179 19.2261 28.1829 21.2818 27.1935 23.1839C25.2316 26.937 21.5042 27.9008 18.024 25.504Z" fill="#FCFBE3"/>
</svg>
