<svg width="39" height="38" viewBox="0 0 39 38" fill="none" xmlns="http://www.w3.org/2000/svg">
<path d="M19.5381 38C30.0315 38 38.5381 29.4934 38.5381 19C38.5381 8.50659 30.0315 0 19.5381 0C9.04472 0 0.538086 8.50659 0.538086 19C0.538086 29.4934 9.04472 38 19.5381 38Z" fill="#F87B54"/>
<path d="M18.3766 7.51893C10.6742 8.81544 6.48624 16.9357 10.0005 23.9045C10.1796 24.2542 10.2052 24.7831 10.0858 25.1584C9.56546 26.8728 8.95978 28.5702 8.31152 30.515C8.80625 30.3871 9.07921 30.3359 9.35216 30.2506C10.7596 29.807 12.1669 29.3805 13.5573 28.8944C14.2397 28.6555 14.8282 28.6726 15.5106 28.9882C17.6857 29.9862 19.9802 30.2335 22.3344 29.7303C27.5887 28.6129 31.2053 23.913 31.2906 18.8976C31.4356 11.3829 24.4838 6.49537 18.3766 7.51893ZM19.9887 27.8623C18.5984 27.8623 17.1654 27.3334 15.8433 26.8302C15.1183 26.5572 14.5553 26.3866 13.8303 26.6937C13.1393 26.9837 12.4058 27.1458 11.6893 27.3675C11.604 27.3334 11.5187 27.2908 11.4334 27.2567C12.6958 25.329 12.167 23.623 11.3908 21.6441C9.48014 16.7737 12.5508 11.2038 17.4298 9.83049C22.5476 8.38897 28.1772 11.4767 29.0899 17.0552C30.1135 23.4012 25.3965 27.8793 19.9887 27.8623Z" fill="black"/>
<path d="M8.31152 30.515C8.95978 28.5787 9.56546 26.8814 10.0858 25.1584C10.2052 24.7745 10.1796 24.2542 10.0005 23.9045C6.48624 16.9357 10.6657 8.80691 18.3766 7.51893C24.4753 6.49536 31.4355 11.3829 31.299 18.9061C31.2138 23.913 27.5972 28.6129 22.3429 29.7388C19.9887 30.242 17.7027 29.9862 15.5191 28.9967C14.8282 28.6811 14.2482 28.6641 13.5659 28.9029C12.1755 29.3805 10.7596 29.8156 9.36074 30.2591C9.08779 30.3359 8.80625 30.3956 8.31152 30.515ZM11.4249 27.2567C11.5102 27.2908 11.5955 27.3334 11.6808 27.3675C12.3972 27.1458 13.1394 26.9837 13.8218 26.6937C14.5468 26.3866 15.1182 26.5572 15.8347 26.8302C17.1654 27.3334 18.5899 27.8537 19.9802 27.8622C25.388 27.8793 30.1049 23.4012 29.0728 17.0466C28.1687 11.4682 22.5305 8.38896 17.4127 9.83048C12.5337 11.2038 9.46307 16.7737 11.3737 21.6441C12.1584 23.6145 12.6873 25.3204 11.4249 27.2567Z" fill="#FCFBE3"/>
<path d="M25.0723 23.6316C24.5008 24.0325 23.7929 24.2286 23.2896 24.4504C21.2169 24.0239 19.4768 23.3501 18.0523 22.0706C16.3976 20.5779 15.0072 18.872 14.4272 16.6628C14.1031 15.443 14.5381 14.3854 15.4337 13.5409C16.2781 12.7391 17.2335 12.9609 17.6771 14.0357C17.8647 14.4877 17.9926 14.9739 18.2059 15.4174C18.5385 16.0742 18.4277 16.6457 17.8903 17.0978C17.3615 17.5414 17.3614 18.019 17.7964 18.4455C18.7176 19.3667 19.6644 20.2538 20.6539 21.1068C21.1742 21.5588 21.7542 21.5162 22.1466 20.8679C22.6669 20.0235 23.3067 19.9467 24.0999 20.4841C24.3388 20.6547 24.6202 20.7656 24.8761 20.9106C26.147 21.5759 26.2664 22.8042 25.0723 23.6316Z" fill="black"/>
<path d="M23.2807 24.4501C21.208 24.0236 19.468 23.3498 18.0435 22.0704C16.3888 20.5777 14.9984 18.8717 14.4184 16.6625C14.0943 15.4428 14.5293 14.3851 15.4249 13.5321C16.2694 12.7303 17.2247 12.9521 17.6682 14.0269C17.8559 14.4789 17.9838 14.9651 18.1971 15.4002C18.5297 16.0569 18.4188 16.6284 17.8814 17.0805C17.3611 17.524 17.3612 18.0017 17.7877 18.4282C18.7089 19.3494 19.6556 20.2365 20.6365 21.0894C21.1654 21.5415 21.7369 21.4989 22.1292 20.8506C22.6495 20.0062 23.2893 19.9294 24.0826 20.4668C24.3214 20.6374 24.6028 20.7483 24.8587 20.8847C26.1296 21.5586 26.2491 22.7954 25.055 23.6228C24.5005 24.0322 23.784 24.2284 23.2807 24.4501Z" fill="#FCFBE3"/>
</svg>
