<svg width="39" height="39" viewBox="0 0 39 39" fill="none" xmlns="http://www.w3.org/2000/svg">
<path d="M19.8927 0.388731C9.20438 0.362992 0.691413 8.76263 0.691413 19.3329C0.682848 29.9547 9.11016 38.3629 19.7899 38.3886C30.1527 38.4144 38.6914 29.8517 38.6914 19.4445C38.6914 8.96853 30.247 0.40589 19.8927 0.388731Z" fill="#F87B54"/>
<path d="M19.6696 27.2144C17.3496 27.2144 15.0295 27.2315 12.7179 27.2144C10.2529 27.1974 8.64927 25.5938 8.62368 23.1202C8.59809 20.7319 8.59809 18.3521 8.62368 15.9638C8.64927 13.439 10.2784 11.8098 12.7862 11.8013C17.3495 11.7928 21.9214 11.7928 26.4848 11.8013C28.8987 11.8098 30.5279 13.422 30.5535 15.8103C30.5706 18.3009 30.5706 20.7916 30.5535 23.2823C30.5279 25.5853 28.9414 27.1803 26.6384 27.2059C24.3098 27.2315 21.9897 27.2059 19.6696 27.2144ZM17.3666 22.4549C19.2687 21.4399 21.0685 20.476 23.0047 19.4524C21.077 18.4545 19.2943 17.5333 17.3666 16.5353C17.3666 18.591 17.3666 20.4334 17.3666 22.4549Z" fill="#FCFBE3"/>
</svg>
